# xmcd CD database file
#
# Track frame offsets:
#	150
#	20797
#	42772
#	68365
#	73637
#	89967
#	103047
#	121557
#	143297
#	168270
#	284370
#	306205
#
# Disc length: 4306 seconds
#
# Revision: 1
# Processed by: cddbd v1.4PL0 Copyright (c) Steve Scherf et al.
# Submitted via: CDex 1.40Beta5
#
DISCID=9e10d00c
DTITLE=Nina Simone - My Baby Just Cares For Me
DYEAR=1900
DGENRE=Blues
TTITLE0=My Baby Just Cares For Me
TTITLE1=Pirate Jenny
TTITLE2=For Awhile
TTITLE3=You Took My Teeth
TTITLE4=Sugar In My Bowl
TTITLE5=Backlash Blues
TTITLE6=Do What You Gotta Do
TTITLE7=Mississippi Goddamm
TTITLE8=See Lime Woman
TTITLE9=The Other Woman
TTITLE10=Four Women
TTITLE11=I Sing Just To Know I'm Alive
EXTD=ID3G:   0
EXTT0=
EXTT1=
EXTT2=
EXTT3=
EXTT4=
EXTT5=
EXTT6=
EXTT7=
EXTT8=
EXTT9=
EXTT10=
EXTT11=
PLAYORDER=
